<svg xmlns="http://www.w3.org/2000/svg" width="1200" height="720" viewBox="0 0 1200 720">
  <rect width="1200" height="720" fill="#020908"/>
  <path d="M0 530 C220 440 320 620 520 500 S850 440 1200 330" fill="none" stroke="#22f2a6" stroke-opacity=".28"/>
  <rect x="34" y="34" width="240" height="652" rx="8" fill="#061612" stroke="#22f2a6" stroke-opacity=".28"/>
  <text x="64" y="82" fill="#e7fff7" font-family="Segoe UI,Arial" font-size="24" font-weight="700">AgentOps Governance</text>
  <text x="64" y="122" fill="#8fb6aa" font-family="Segoe UI,Arial" font-size="16">Claims control plane</text>
  <rect x="310" y="42" width="836" height="86" rx="8" fill="#081f1a" stroke="#22f2a6" stroke-opacity=".25"/>
  <text x="338" y="82" fill="#22f2a6" font-family="Segoe UI,Arial" font-size="15" font-weight="700">INSURANCE CLAIMS GOVERNANCE</text>
  <text x="338" y="113" fill="#e7fff7" font-family="Segoe UI,Arial" font-size="34" font-weight="700">Operational Review Dashboard</text>
  <g fill="#081f1a" stroke="#22f2a6" stroke-opacity=".25">
    <rect x="310" y="160" width="190" height="100" rx="8"/><rect x="524" y="160" width="190" height="100" rx="8"/><rect x="738" y="160" width="190" height="100" rx="8"/><rect x="952" y="160" width="190" height="100" rx="8"/>
  </g>
  <text x="338" y="218" fill="#22f2a6" font-family="Segoe UI,Arial" font-size="32" font-weight="700">Admin</text>
  <rect x="310" y="300" width="400" height="330" rx="8" fill="#081f1a" stroke="#22f2a6" stroke-opacity=".25"/>
  <rect x="742" y="300" width="400" height="330" rx="8" fill="#081f1a" stroke="#22f2a6" stroke-opacity=".25"/>
  <text x="340" y="350" fill="#e7fff7" font-family="Segoe UI,Arial" font-size="26" font-weight="700">Claim Intake</text>
  <text x="772" y="350" fill="#e7fff7" font-family="Segoe UI,Arial" font-size="26" font-weight="700">Governance Result</text>
</svg>
